<svg width="85" height="25" viewBox="0 0 85 25" fill="none" xmlns="http://www.w3.org/2000/svg">
    <path d="M5.38 19.432C4.372 19.432 3.484 19.256 2.716 18.904C1.948 18.552 1.356 18.064 0.94 17.44C0.524 16.8 0.316 16.064 0.316 15.232C0.316 14.528 0.46 13.888 0.748 13.312C1.052 12.736 1.452 12.28 1.948 11.944C2.46 11.608 3.02 11.44 3.628 11.44C4.188 11.44 4.66 11.584 5.044 11.872C5.428 12.144 5.668 12.528 5.764 13.024C4.932 13.024 4.268 13.248 3.772 13.696C3.276 14.128 3.028 14.72 3.028 15.472C3.028 16.16 3.236 16.712 3.652 17.128C4.068 17.544 4.62 17.752 5.308 17.752C6.156 17.752 6.852 17.472 7.396 16.912C7.956 16.336 8.236 15.616 8.236 14.752C8.236 14 8.028 13.288 7.612 12.616C7.196 11.944 6.572 11.128 5.74 10.168C4.876 9.176 4.22 8.328 3.772 7.624C3.34 6.904 3.124 6.12 3.124 5.272C3.124 4.44 3.356 3.696 3.82 3.04C4.284 2.368 4.924 1.84 5.74 1.456C6.556 1.072 7.476 0.879999 8.5 0.879999C9.796 0.879999 10.828 1.184 11.596 1.792C12.38 2.4 12.772 3.216 12.772 4.24C12.772 4.912 12.604 5.456 12.268 5.872C11.932 6.288 11.492 6.496 10.948 6.496C10.34 6.496 9.852 6.248 9.484 5.752C9.788 5.528 10.028 5.232 10.204 4.864C10.38 4.496 10.468 4.112 10.468 3.712C10.468 3.2 10.316 2.792 10.012 2.488C9.708 2.184 9.292 2.032 8.764 2.032C8.124 2.032 7.596 2.264 7.18 2.728C6.78 3.176 6.58 3.752 6.58 4.456C6.58 5.096 6.764 5.696 7.132 6.256C7.5 6.8 8.076 7.504 8.86 8.368C9.5 9.056 10.012 9.648 10.396 10.144C10.796 10.64 11.132 11.216 11.404 11.872C11.692 12.512 11.836 13.208 11.836 13.96C11.836 14.984 11.548 15.912 10.972 16.744C10.412 17.576 9.636 18.232 8.644 18.712C7.668 19.192 6.58 19.432 5.38 19.432ZM16.6915 19.096C15.5075 19.096 14.5715 18.792 13.8835 18.184C13.1955 17.576 12.8515 16.616 12.8515 15.304C12.8515 14.216 13.0755 13.008 13.5235 11.68C13.9715 10.352 14.6915 9.208 15.6835 8.248C16.6755 7.272 17.9235 6.784 19.4275 6.784C21.4755 6.784 22.4995 8.064 22.4995 10.624V10.648C22.5475 10.664 22.6355 10.672 22.7635 10.672C23.2915 10.672 23.8995 10.536 24.5875 10.264C25.2755 9.976 25.8995 9.632 26.4595 9.232L26.6755 9.88C26.2115 10.376 25.6035 10.8 24.8515 11.152C24.1155 11.488 23.3075 11.728 22.4275 11.872C22.2995 13.328 21.9715 14.6 21.4435 15.688C20.9155 16.776 20.2355 17.616 19.4035 18.208C18.5715 18.8 17.6675 19.096 16.6915 19.096ZM17.6515 16.936C18.0355 16.936 18.4195 16.72 18.8035 16.288C19.1875 15.84 19.5235 15.24 19.8115 14.488C20.0995 13.72 20.3075 12.872 20.4355 11.944C20.0035 11.848 19.7875 11.512 19.7875 10.936C19.7875 10.28 20.0355 9.848 20.5315 9.64C20.4995 9.112 20.4195 8.752 20.2915 8.56C20.1635 8.352 19.9395 8.248 19.6195 8.248C19.0915 8.248 18.5795 8.632 18.0835 9.4C17.5875 10.168 17.1875 11.088 16.8835 12.16C16.5795 13.232 16.4275 14.176 16.4275 14.992C16.4275 15.76 16.5155 16.28 16.6915 16.552C16.8675 16.808 17.1875 16.936 17.6515 16.936ZM27.1664 19.144C25.9824 19.144 25.0624 18.84 24.4064 18.232C23.7504 17.608 23.4224 16.64 23.4224 15.328C23.4224 14.224 23.6384 13.008 24.0704 11.68C24.5184 10.352 25.2224 9.208 26.1824 8.248C27.1584 7.272 28.3904 6.784 29.8784 6.784C30.8384 6.784 31.5184 6.992 31.9184 7.408C32.3344 7.824 32.5424 8.352 32.5424 8.992C32.5424 9.552 32.4224 9.984 32.1824 10.288C31.9424 10.592 31.6384 10.744 31.2704 10.744C30.9984 10.744 30.7184 10.648 30.4304 10.456C30.6224 9.928 30.7184 9.456 30.7184 9.04C30.7184 8.736 30.6624 8.496 30.5504 8.32C30.4384 8.144 30.2704 8.056 30.0464 8.056C29.5664 8.056 29.0864 8.448 28.6064 9.232C28.1264 10.016 27.7344 10.968 27.4304 12.088C27.1264 13.208 26.9744 14.216 26.9744 15.112C26.9744 15.896 27.1104 16.432 27.3824 16.72C27.6544 16.992 28.0944 17.128 28.7024 17.128C29.5664 17.128 30.3024 16.928 30.9104 16.528C31.5344 16.128 32.2144 15.52 32.9504 14.704H33.7664C31.9904 17.664 29.7904 19.144 27.1664 19.144ZM36.9533 5.704C36.4253 5.704 35.9773 5.52 35.6093 5.152C35.2413 4.784 35.0573 4.336 35.0573 3.808C35.0573 3.28 35.2413 2.832 35.6093 2.464C35.9773 2.08 36.4253 1.888 36.9533 1.888C37.4813 1.888 37.9293 2.08 38.2973 2.464C38.6813 2.832 38.8733 3.28 38.8733 3.808C38.8733 4.336 38.6813 4.784 38.2973 5.152C37.9293 5.52 37.4813 5.704 36.9533 5.704ZM35.3213 19.144C34.5533 19.144 33.9293 18.904 33.4493 18.424C32.9853 17.944 32.7533 17.224 32.7533 16.264C32.7533 15.864 32.8173 15.344 32.9453 14.704L34.5773 7H38.0333L36.3053 15.16C36.2413 15.4 36.2093 15.656 36.2093 15.928C36.2093 16.248 36.2813 16.48 36.4253 16.624C36.5853 16.752 36.8413 16.816 37.1933 16.816C37.6573 16.816 38.0893 16.624 38.4893 16.24C38.8893 15.84 39.1773 15.328 39.3533 14.704H40.3613C39.7693 16.432 39.0093 17.608 38.0813 18.232C37.1533 18.84 36.2333 19.144 35.3213 19.144ZM42.2238 19.144C41.3118 19.144 40.5518 18.832 39.9438 18.208C39.3357 17.584 39.0317 16.608 39.0317 15.28C39.0317 14.096 39.2638 12.856 39.7278 11.56C40.2078 10.248 40.9118 9.144 41.8398 8.248C42.7838 7.336 43.9038 6.88 45.1998 6.88C45.8558 6.88 46.3438 6.992 46.6638 7.216C46.9838 7.44 47.1438 7.736 47.1438 8.104V8.272L47.4078 7H50.8638L49.1358 15.16C49.0718 15.4 49.0398 15.656 49.0398 15.928C49.0398 16.248 49.1118 16.48 49.2558 16.624C49.4158 16.752 49.6718 16.816 50.0238 16.816C50.2478 16.816 50.4238 16.784 50.5518 16.72C50.1998 17.616 49.8638 18.248 49.5438 18.616C49.2238 18.968 48.7598 19.144 48.1518 19.144C47.4958 19.144 46.9598 18.952 46.5438 18.568C46.1438 18.168 45.8958 17.616 45.7998 16.912C44.8238 18.4 43.6318 19.144 42.2238 19.144ZM43.7838 16.816C44.1838 16.816 44.5758 16.632 44.9598 16.264C45.3598 15.88 45.6318 15.36 45.7758 14.704L46.9278 9.28C46.9278 9.072 46.8478 8.872 46.6878 8.68C46.5278 8.472 46.2798 8.368 45.9438 8.368C45.3038 8.368 44.7278 8.744 44.2158 9.496C43.7038 10.232 43.3038 11.128 43.0158 12.184C42.7278 13.224 42.5838 14.144 42.5838 14.944C42.5838 15.744 42.6958 16.256 42.9198 16.48C43.1598 16.704 43.4478 16.816 43.7838 16.816ZM63.9629 25C63.2429 25 62.5309 24.792 61.8269 24.376C61.1389 23.976 60.2589 23.352 59.1869 22.504C58.3869 21.864 57.6989 21.344 57.1229 20.944C56.5629 20.56 55.9469 20.232 55.2749 19.96C54.6189 19.688 53.9469 19.552 53.2589 19.552C53.0189 19.552 52.8349 19.56 52.7069 19.576L56.2829 2.944C55.2109 3.376 54.3789 4.04 53.7869 4.936C53.2109 5.816 52.9229 6.896 52.9229 8.176C52.9229 8.768 52.9789 9.184 53.0909 9.424C53.2029 9.648 53.2589 9.776 53.2589 9.808C52.3949 9.808 51.7469 9.632 51.3149 9.28C50.8989 8.912 50.6909 8.312 50.6909 7.48C50.6909 6.456 51.1069 5.464 51.9389 4.504C52.7869 3.528 53.8669 2.744 55.1789 2.152C56.4909 1.544 57.8029 1.24 59.1149 1.24C59.3389 1.24 59.6589 1.256 60.0749 1.288L56.3789 18.52C56.8269 18.632 57.2829 18.792 57.7469 19C58.2269 19.224 58.8029 19.52 59.4749 19.888C60.5149 20.448 61.4029 20.872 62.1389 21.16C62.8749 21.464 63.6429 21.616 64.4429 21.616C65.1629 21.616 65.8349 21.488 66.4589 21.232C66.3309 22.4 66.0429 23.32 65.5949 23.992C65.1629 24.664 64.6189 25 63.9629 25ZM63.6486 5.704C63.1206 5.704 62.6726 5.52 62.3046 5.152C61.9366 4.784 61.7526 4.336 61.7526 3.808C61.7526 3.28 61.9366 2.832 62.3046 2.464C62.6726 2.08 63.1206 1.888 63.6486 1.888C64.1766 1.888 64.6246 2.08 64.9926 2.464C65.3766 2.832 65.5686 3.28 65.5686 3.808C65.5686 4.336 65.3766 4.784 64.9926 5.152C64.6246 5.52 64.1766 5.704 63.6486 5.704ZM62.0166 19.144C61.2486 19.144 60.6246 18.904 60.1446 18.424C59.6806 17.944 59.4486 17.224 59.4486 16.264C59.4486 15.864 59.5126 15.344 59.6406 14.704L61.2726 7H64.7286L63.0006 15.16C62.9366 15.4 62.9046 15.656 62.9046 15.928C62.9046 16.248 62.9766 16.48 63.1206 16.624C63.2806 16.752 63.5366 16.816 63.8886 16.816C64.3526 16.816 64.7846 16.624 65.1846 16.24C65.5846 15.84 65.8726 15.328 66.0486 14.704H67.0566C66.4646 16.432 65.7046 17.608 64.7766 18.232C63.8486 18.84 62.9286 19.144 62.0166 19.144ZM68.7751 19.144C67.8471 19.144 67.1191 18.912 66.5911 18.448C66.0791 17.968 65.8231 17.256 65.8231 16.312C65.8231 15.928 65.8631 15.544 65.9431 15.16L67.6711 7H71.1271L69.3991 15.16C69.3191 15.56 69.2791 15.848 69.2791 16.024C69.2791 16.552 69.5511 16.816 70.0951 16.816C70.8311 16.816 71.5111 16.352 72.1351 15.424C72.7751 14.496 73.2871 13.392 73.6711 12.112C74.0551 10.832 74.2471 9.728 74.2471 8.8C74.2151 8.88 74.1111 8.944 73.9351 8.992C73.7591 9.024 73.6071 9.04 73.4791 9.04C73.2071 9.04 72.9911 8.912 72.8311 8.656C72.6871 8.4 72.6151 8.12 72.6151 7.816C72.6151 7.432 72.7351 7.12 72.9751 6.88C73.2311 6.64 73.6071 6.52 74.1031 6.52C74.6311 6.52 75.0151 6.72 75.2551 7.12C75.4951 7.504 75.6151 8 75.6151 8.608C75.6151 10.048 75.3671 11.592 74.8711 13.24C74.3751 14.872 73.6151 16.264 72.5911 17.416C71.5671 18.568 70.2951 19.144 68.7751 19.144ZM79.3606 19.144C78.1926 19.144 77.2806 18.84 76.6246 18.232C75.9686 17.608 75.6406 16.64 75.6406 15.328C75.6406 14.224 75.8566 13.008 76.2886 11.68C76.7206 10.352 77.4246 9.208 78.4006 8.248C79.3766 7.272 80.6166 6.784 82.1206 6.784C83.8806 6.784 84.7606 7.552 84.7606 9.088C84.7606 9.984 84.5046 10.808 83.9926 11.56C83.4806 12.312 82.8006 12.92 81.9526 13.384C81.1046 13.832 80.2006 14.088 79.2406 14.152C79.2086 14.504 79.1926 14.744 79.1926 14.872C79.1926 16.2 79.6886 16.864 80.6806 16.864C81.1286 16.864 81.6086 16.744 82.1206 16.504C82.6326 16.264 83.0966 15.96 83.5126 15.592C83.0806 17.96 81.6966 19.144 79.3606 19.144ZM79.4086 13C80.0166 12.984 80.5846 12.784 81.1126 12.4C81.6566 12.016 82.0886 11.528 82.4086 10.936C82.7446 10.328 82.9126 9.696 82.9126 9.04C82.9126 8.384 82.7126 8.056 82.3126 8.056C81.7526 8.056 81.1926 8.568 80.6326 9.592C80.0886 10.6 79.6806 11.736 79.4086 13Z" fill="#101828"/>
</svg>
