<svg width="13" height="13" viewBox="0 0 13 13" fill="none" xmlns="http://www.w3.org/2000/svg">
    <path d="M0.666656 2.1665C0.666656 1.76868 0.824692 1.38715 1.106 1.10584C1.3873 0.824539 1.76883 0.666504 2.16666 0.666504H3.66666C4.06448 0.666504 4.44601 0.824539 4.72732 1.10584C5.00862 1.38715 5.16666 1.76868 5.16666 2.1665V3.6665C5.16666 4.06433 5.00862 4.44586 4.72732 4.72716C4.44601 5.00847 4.06448 5.1665 3.66666 5.1665H2.16666C1.76883 5.1665 1.3873 5.00847 1.106 4.72716C0.824692 4.44586 0.666656 4.06433 0.666656 3.6665V2.1665ZM0.666656 8.6665C0.666656 8.26868 0.824692 7.88715 1.106 7.60584C1.3873 7.32454 1.76883 7.1665 2.16666 7.1665H3.66666C4.06448 7.1665 4.44601 7.32454 4.72732 7.60584C5.00862 7.88715 5.16666 8.26868 5.16666 8.6665V10.1665C5.16666 10.5643 5.00862 10.9459 4.72732 11.2272C4.44601 11.5085 4.06448 11.6665 3.66666 11.6665H2.16666C1.76883 11.6665 1.3873 11.5085 1.106 11.2272C0.824692 10.9459 0.666656 10.5643 0.666656 10.1665V8.6665ZM7.16666 2.1665C7.16666 1.76868 7.32469 1.38715 7.606 1.10584C7.8873 0.824539 8.26883 0.666504 8.66666 0.666504H10.1667C10.5645 0.666504 10.946 0.824539 11.2273 1.10584C11.5086 1.38715 11.6667 1.76868 11.6667 2.1665V3.6665C11.6667 4.06433 11.5086 4.44586 11.2273 4.72716C10.946 5.00847 10.5645 5.1665 10.1667 5.1665H8.66666C8.26883 5.1665 7.8873 5.00847 7.606 4.72716C7.32469 4.44586 7.16666 4.06433 7.16666 3.6665V2.1665ZM7.16666 8.6665C7.16666 8.26868 7.32469 7.88715 7.606 7.60584C7.8873 7.32454 8.26883 7.1665 8.66666 7.1665H10.1667C10.5645 7.1665 10.946 7.32454 11.2273 7.60584C11.5086 7.88715 11.6667 8.26868 11.6667 8.6665V10.1665C11.6667 10.5643 11.5086 10.9459 11.2273 11.2272C10.946 11.5085 10.5645 11.6665 10.1667 11.6665H8.66666C8.26883 11.6665 7.8873 11.5085 7.606 11.2272C7.32469 10.9459 7.16666 10.5643 7.16666 10.1665V8.6665Z" stroke="#1D2939" stroke-linecap="round" stroke-linejoin="round"/>
</svg>
