<svg width="20" height="20" viewBox="0 0 20 20" fill="none" xmlns="http://www.w3.org/2000/svg">
    <path d="M16.107 16.7252C15.4083 15.8001 14.5043 15.0498 13.4662 14.5336C12.4281 14.0173 11.2844 13.7491 10.125 13.7502C8.96566 13.7491 7.8219 14.0173 6.78383 14.5336C5.74577 15.0498 4.84175 15.8001 4.14301 16.7252M16.107 16.7252C17.4705 15.5124 18.4321 13.9137 18.8662 12.1413C19.3003 10.3688 19.1853 8.50628 18.5365 6.80067C17.8877 5.09506 16.7357 3.62697 15.2334 2.59109C13.7311 1.55521 11.9494 1.00049 10.1245 1.00049C8.29967 1.00049 6.51795 1.55521 5.01562 2.59109C3.51329 3.62697 2.36134 5.09506 1.71255 6.80067C1.06375 8.50628 0.948765 10.3688 1.38283 12.1413C1.8169 13.9137 2.77951 15.5124 4.14301 16.7252M16.107 16.7252C14.461 18.1934 12.3306 19.0033 10.125 19.0002C7.91904 19.0036 5.78925 18.1936 4.14301 16.7252M13.125 7.75019C13.125 8.54584 12.8089 9.30891 12.2463 9.87151C11.6837 10.4341 10.9207 10.7502 10.125 10.7502C9.32936 10.7502 8.5663 10.4341 8.00369 9.87151C7.44108 9.30891 7.12501 8.54584 7.12501 7.75019C7.12501 6.95454 7.44108 6.19148 8.00369 5.62887C8.5663 5.06626 9.32936 4.75019 10.125 4.75019C10.9207 4.75019 11.6837 5.06626 12.2463 5.62887C12.8089 6.19148 13.125 6.95454 13.125 7.75019Z" stroke="#101828" stroke-width="1.5" stroke-linecap="round" stroke-linejoin="round"/>
</svg>
